<svg xmlns="http://www.w3.org/2000/svg" width="208" height="92.001" viewBox="0 0 208 92.001">
  <g id="Vector_Smart_Object" data-name="Vector Smart Object" transform="translate(-548.038 -867.933)">
    <g id="Group_21" data-name="Group 21">
      <g id="Group_20" data-name="Group 20">
        <g id="Group_19" data-name="Group 19">
          <path id="Path_133" data-name="Path 133" d="M728.123,921.74l.107-.194a27.673,27.673,0,0,1-5.266-33.179l-.381-.363a27.607,27.607,0,0,0-11.449-1.281,27.684,27.684,0,0,0,16.99,35.017" fill="#f07500"/>
          <path id="Path_134" data-name="Path 134" d="M722.583,888l.485.172a27.658,27.658,0,0,1,32.97-12.953,27.651,27.651,0,0,0-42.953,7.08,27.888,27.888,0,0,1,9.5,5.7" fill="#f07500"/>
        </g>
        <path id="Path_135" data-name="Path 135" d="M729.728,898.538a27.631,27.631,0,0,1-1.5,23.009l.383.361a27.559,27.559,0,0,0,11.446,1.283,27.682,27.682,0,0,0-16.992-35.015l-.1.192a27.531,27.531,0,0,1,6.764,10.17" fill="#640f61"/>
        <path id="Path_136" data-name="Path 136" d="M728.614,921.908l-.49-.168a27.635,27.635,0,0,1-32.968,12.945,27.647,27.647,0,0,0,42.955-7.073,27.757,27.757,0,0,1-9.5-5.7" fill="#640f61"/>
        <path id="Path_137" data-name="Path 137" d="M606.54,899.452,609.1,881.1l.092-1.152a8.355,8.355,0,0,0-.411-2.192H614.7a8.539,8.539,0,0,1,5.255,1.464,4.66,4.66,0,0,1,1.949,3.933,6.319,6.319,0,0,1-1.5,3.83,9.673,9.673,0,0,1-1.323,1.289,16.206,16.206,0,0,1-2.019,1.289c.21.092.407.181.593.26a3.922,3.922,0,0,1,.591.332,5.541,5.541,0,0,1,2.3,2.107,5.846,5.846,0,0,1,.835,3.083,6.185,6.185,0,0,1-.766,2.839,8.925,8.925,0,0,1-2.018,2.594,7.816,7.816,0,0,1-2.679,1.6,11.258,11.258,0,0,1-3.586.487H605.2a12.008,12.008,0,0,0,.916-1.757,7.4,7.4,0,0,0,.424-1.654m3.985.9a10.351,10.351,0,0,0,3.186-.382,4.953,4.953,0,0,0,2-1.289,5.54,5.54,0,0,0,1.356-3.691,4.832,4.832,0,0,0-1.253-3.623,5.3,5.3,0,0,0-3.825-1.219ZM612.1,889.1a6.135,6.135,0,0,0,2.134-.3,5.292,5.292,0,0,0,1.61-1.062,6.182,6.182,0,0,0,1.362-1.809,4.562,4.562,0,0,0,.527-2.056q0-3.446-4.057-3.446h-.385Z" fill="#640f61"/>
        <path id="Path_138" data-name="Path 138" d="M623.714,899.592l2.471-17.45a21.5,21.5,0,0,0,.21-2.578,4.263,4.263,0,0,0-.1-1.13q-.105-.332-.21-.68H631.2a7.816,7.816,0,0,0-.9,1.827,22.523,22.523,0,0,0-.488,2.561l-2.436,17.45-.14,1.5a3.769,3.769,0,0,0,.057.87,9.217,9.217,0,0,0,.429.905H622.5a6.63,6.63,0,0,0,.853-1.479,8.3,8.3,0,0,0,.365-1.792" fill="#640f61"/>
        <path id="Path_139" data-name="Path 139" d="M634.818,894.54l-.105,1.949a4.44,4.44,0,0,0,.991,3.085,3.627,3.627,0,0,0,2.838,1.1,7.145,7.145,0,0,0,2.261-.315,22.62,22.62,0,0,0,3.2-1.565c-.464.7-.811,1.254-1.041,1.671s-.5.942-.8,1.567a12.531,12.531,0,0,1-2.331.835,10.152,10.152,0,0,1-2.194.21q-6.683,0-6.681-6.514a12.915,12.915,0,0,1,2.436-8.131,7.608,7.608,0,0,1,6.3-3.151,5.537,5.537,0,0,1,4.142,1.462,5.853,5.853,0,0,1,1.426,4.25,27.5,27.5,0,0,1-.416,3.551H634.818m.451-2.089h6.578a10.929,10.929,0,0,0,.243-2.111q0-3.042-2.681-3.042a3.245,3.245,0,0,0-2.226.83,5.136,5.136,0,0,0-1.426,2.388Z" fill="#640f61"/>
        <path id="Path_140" data-name="Path 140" d="M646.232,898.615a7.67,7.67,0,0,0,1.966,1.916,3.864,3.864,0,0,0,2.071.592,2.924,2.924,0,0,0,1.984-.767,2.307,2.307,0,0,0,.87-1.776,2.052,2.052,0,0,0-.385-1.272,9.635,9.635,0,0,0-2.086-1.6,9.527,9.527,0,0,1-2.524-2.2,4.222,4.222,0,0,1-.816-2.592,5.071,5.071,0,0,1,1.844-4.112,7.5,7.5,0,0,1,4.942-1.53,12.278,12.278,0,0,1,1.913.1,12.925,12.925,0,0,1,2.019.649c-.138.655-.238,1.184-.3,1.593a11.224,11.224,0,0,0-.087,1.486,8.066,8.066,0,0,0-1.966-1.422,4.338,4.338,0,0,0-1.828-.389,3.105,3.105,0,0,0-2.053.662,2.117,2.117,0,0,0-.8,1.709,1.9,1.9,0,0,0,.278,1.082,5.717,5.717,0,0,0,1.253,1.152l1.185.977a13.934,13.934,0,0,1,2.626,2.39,3.7,3.7,0,0,1,.538,2.113,5.2,5.2,0,0,1-1.9,4.136,7.256,7.256,0,0,1-4.89,1.624,10.454,10.454,0,0,1-2.088-.175,17.42,17.42,0,0,1-2.263-.7c.094-.467.2-.994.315-1.586a11.038,11.038,0,0,0,.173-2.072" fill="#640f61"/>
        <path id="Path_141" data-name="Path 141" d="M658.8,898.615a7.7,7.7,0,0,0,1.966,1.916,3.865,3.865,0,0,0,2.071.592,2.924,2.924,0,0,0,1.984-.767,2.307,2.307,0,0,0,.87-1.776,2.063,2.063,0,0,0-.383-1.272,9.692,9.692,0,0,0-2.089-1.6,9.515,9.515,0,0,1-2.522-2.2,4.222,4.222,0,0,1-.816-2.592,5.075,5.075,0,0,1,1.843-4.112,7.5,7.5,0,0,1,4.942-1.53,12.291,12.291,0,0,1,1.914.1,12.864,12.864,0,0,1,2.018.649c-.136.655-.236,1.184-.293,1.593a10.631,10.631,0,0,0-.087,1.486,8.106,8.106,0,0,0-1.968-1.422,4.347,4.347,0,0,0-1.826-.389,3.1,3.1,0,0,0-2.053.662,2.115,2.115,0,0,0-.8,1.709,1.914,1.914,0,0,0,.28,1.082,5.738,5.738,0,0,0,1.251,1.152l1.185.977a13.964,13.964,0,0,1,2.628,2.39,3.686,3.686,0,0,1,.538,2.113,5.2,5.2,0,0,1-1.894,4.136,7.26,7.26,0,0,1-4.892,1.624,10.513,10.513,0,0,1-2.089-.175,17.407,17.407,0,0,1-2.261-.7c.092-.467.2-.994.313-1.586a10.875,10.875,0,0,0,.175-2.072" fill="#640f61"/>
        <path id="Path_142" data-name="Path 142" d="M675.432,894.54l-.107,1.949a4.44,4.44,0,0,0,.993,3.085,3.624,3.624,0,0,0,2.838,1.1,7.133,7.133,0,0,0,2.259-.315,22.509,22.509,0,0,0,3.2-1.565c-.464.7-.813,1.254-1.045,1.671s-.5.942-.8,1.567a12.485,12.485,0,0,1-2.331.835,10.146,10.146,0,0,1-2.193.21q-6.686,0-6.683-6.514A12.926,12.926,0,0,1,674,888.428a7.614,7.614,0,0,1,6.3-3.151,5.537,5.537,0,0,1,4.142,1.462,5.853,5.853,0,0,1,1.426,4.25,27.621,27.621,0,0,1-.418,3.551H675.432m.451-2.089h6.576a10.8,10.8,0,0,0,.245-2.111q0-3.042-2.679-3.042a3.243,3.243,0,0,0-2.228.83,5.169,5.169,0,0,0-1.428,2.388Z" fill="#640f61"/>
        <path id="Path_143" data-name="Path 143" d="M700.627,881.968a21.2,21.2,0,0,0,.21-2.472,4.6,4.6,0,0,0-.035-.749c-.024-.105-.127-.435-.313-.992h5.187a9.832,9.832,0,0,0-.94,1.881,13.639,13.639,0,0,0-.451,2.332l-2.508,17.625a2.489,2.489,0,0,0-.07.623v.837a6.624,6.624,0,0,0,.035.856,5.536,5.536,0,0,0,.348.955H697.7l.418-2.332a10.845,10.845,0,0,1-2.644,2.015,6.056,6.056,0,0,1-2.609.527,5.5,5.5,0,0,1-4.264-1.685,6.543,6.543,0,0,1-1.548-4.6,11.232,11.232,0,0,1,3.236-7.928,10,10,0,0,1,7.486-3.439,7.824,7.824,0,0,1,2.333.419l.516-3.868m-1.028,7.241a5.239,5.239,0,0,0-1.391-1.258,3.338,3.338,0,0,0-1.6-.341,5.2,5.2,0,0,0-2.447.59,6.569,6.569,0,0,0-2.259,2.38,9.171,9.171,0,0,0-1.128,4.914,5.553,5.553,0,0,0,1.15,3.612,3.665,3.665,0,0,0,3,1.425,3.593,3.593,0,0,0,2.141-.66,4.08,4.08,0,0,0,1.08-.959,2.5,2.5,0,0,0,.227-.852Z" fill="#640f61"/>
        <path id="Path_144" data-name="Path 144" d="M570.417,911.21a16.049,16.049,0,0,0-3.724-2.819,8.407,8.407,0,0,0-3.726-.767,9.446,9.446,0,0,0-7.394,3.64,12.925,12.925,0,0,0-3.114,8.69,8.655,8.655,0,0,0,2.137,6.11,7.382,7.382,0,0,0,5.693,2.318,12.869,12.869,0,0,0,2.086-.14,20.912,20.912,0,0,0,2.506-.662l.906-6.442.068-.769a8.044,8.044,0,0,0-.486-2.436h5.881a12.481,12.481,0,0,0-.973,1.724,5.53,5.53,0,0,0-.416,1.481l-.61,4.246c-.041.348-.079.7-.111,1.047s-.048.684-.048,1.009v.592a5.3,5.3,0,0,0,.173.975,36.3,36.3,0,0,1-5.15,1.532,24.186,24.186,0,0,1-4.42.35q-5.5,0-8.579-2.839a10.187,10.187,0,0,1-3.081-7.888,14,14,0,0,1,4.56-10.447,15.11,15.11,0,0,1,10.856-4.39,15.306,15.306,0,0,1,3.361.315,33.476,33.476,0,0,1,4.159,1.392l-.556,4.178" fill="#f07500"/>
        <path id="Path_145" data-name="Path 145" d="M576.194,922.356l-.1,1.949a4.423,4.423,0,0,0,.993,3.083,3.621,3.621,0,0,0,2.836,1.1,7.138,7.138,0,0,0,2.261-.315,22.686,22.686,0,0,0,3.2-1.567q-.7,1.045-1.045,1.672c-.234.419-.5.94-.8,1.567a12.542,12.542,0,0,1-2.333.835,10.093,10.093,0,0,1-2.191.21q-6.683,0-6.683-6.514a12.924,12.924,0,0,1,2.436-8.131,7.612,7.612,0,0,1,6.3-3.153,5.525,5.525,0,0,1,4.142,1.464,5.838,5.838,0,0,1,1.426,4.25,27.285,27.285,0,0,1-.418,3.551H576.194m.453-2.089h6.576a10.793,10.793,0,0,0,.243-2.111q0-3.042-2.679-3.044a3.243,3.243,0,0,0-2.226.832,5.159,5.159,0,0,0-1.43,2.386Z" fill="#f07500"/>
        <path id="Path_146" data-name="Path 146" d="M588.513,927.4l1.6-11.037.041-.905a6.4,6.4,0,0,0-.418-2.089h4.42l-.383,2.963c.628-.559,1.067-.964,1.323-1.221s.649-.708,1.185-1.357a8.25,8.25,0,0,1,1.531-.489,7.714,7.714,0,0,1,1.533-.138q4.032,0,4.035,3.551l-.074.8-1.389,9.925-.1,1.462a4.873,4.873,0,0,0,.451,1.811h-5.115a10.464,10.464,0,0,0,.767-1.565,8.794,8.794,0,0,0,.348-1.707l1.362-9.473.029-.522q0-1.881-2.3-1.881a3.62,3.62,0,0,0-1.5.312l-.9.561c-.9.763-1.389,1.309-1.459,1.634l-1.327,9.37-.1,1.5a3.413,3.413,0,0,0,.068.819c.046.171.151.492.313.957h-5.222a9.888,9.888,0,0,0,.9-1.532,6.729,6.729,0,0,0,.387-1.746" fill="#f07500"/>
        <path id="Path_147" data-name="Path 147" d="M609.256,922.356l-.1,1.949a4.423,4.423,0,0,0,.993,3.083,3.623,3.623,0,0,0,2.836,1.1,7.186,7.186,0,0,0,2.264-.315,23,23,0,0,0,3.2-1.567q-.7,1.045-1.045,1.672t-.8,1.567a12.578,12.578,0,0,1-2.331.835,10.134,10.134,0,0,1-2.193.21q-6.683,0-6.683-6.514a12.924,12.924,0,0,1,2.436-8.131,7.615,7.615,0,0,1,6.3-3.153,5.528,5.528,0,0,1,4.142,1.464,5.838,5.838,0,0,1,1.426,4.25,27.285,27.285,0,0,1-.418,3.551H609.256m.453-2.089h6.576a10.8,10.8,0,0,0,.243-2.111q0-3.042-2.679-3.044a3.243,3.243,0,0,0-2.226.832,5.143,5.143,0,0,0-1.43,2.386Z" fill="#f07500"/>
        <path id="Path_148" data-name="Path 148" d="M621.581,927.406l1.55-11.042.085-.868a5.784,5.784,0,0,0-.07-.916,10.544,10.544,0,0,0-.317-1.28h4.385l-.474,3.133a10.473,10.473,0,0,1,1.432-1.706,6.51,6.51,0,0,1,1.658-.957,4.8,4.8,0,0,1,1.732-.47h.873q-.384,1-.647,1.916c-.175.616-.332,1.276-.472,1.988a3.385,3.385,0,0,0-1.959-.87,2.732,2.732,0,0,0-1.977.8,3.451,3.451,0,0,0-1,2.087l-1.153,8.223-.1,1.394a3.914,3.914,0,0,0,.068.833,7.488,7.488,0,0,0,.348,1.01h-5.15a9.1,9.1,0,0,0,.818-1.619,8.566,8.566,0,0,0,.369-1.654" fill="#f07500"/>
        <path id="Path_149" data-name="Path 149" d="M636.715,930.992a5.282,5.282,0,0,1-5.638-5.675,11.378,11.378,0,0,1,3.479-8.638,12.741,12.741,0,0,1,9.154-3.31h4.177a16.25,16.25,0,0,0-.822,1.672,7.55,7.55,0,0,0-.357,1.427l-1.6,11.426v.94a6.18,6.18,0,0,0,.348,1.844h-3.829a3.2,3.2,0,0,1-.348-1.254V928.9l.14-.872a8.2,8.2,0,0,0-1.253,1.239c-.234.312-.475.667-.73,1.06a9.024,9.024,0,0,1-1.481.542,5.754,5.754,0,0,1-1.234.12m6.43-15.219a6.81,6.81,0,0,0-1.024-.21,7.278,7.278,0,0,0-.886-.07A5.374,5.374,0,0,0,636.749,918a10.429,10.429,0,0,0-1.809,6.269,4.211,4.211,0,0,0,.914,2.838,3.046,3.046,0,0,0,2.43,1.062q3.065,0,3.549-3.457Z" fill="#f07500"/>
        <path id="Path_150" data-name="Path 150" d="M655.563,909.149l-.591,4.22h4.017l-.243,2.021-4.1,0-1.609,11.428-.037.522a1.312,1.312,0,0,0,.365,1.064,2.148,2.148,0,0,0,1.3.295,5.6,5.6,0,0,0,2.85-.835,10.345,10.345,0,0,0-.835,1.235q-.348.608-.695,1.375a13.6,13.6,0,0,1-2.992.383,4.214,4.214,0,0,1-2.747-.8,2.729,2.729,0,0,1-.975-2.229l.022-.454,1.725-11.979h-2.231a45.233,45.233,0,0,0,3.643-2.874,42.035,42.035,0,0,0,3.127-3.367" fill="#f07500"/>
        <path id="Path_151" data-name="Path 151" d="M658.571,927.406l1.6-11.041.033-1.045c0-.208-.006-.422-.017-.643a5.872,5.872,0,0,0-.367-1.307h5.152a11.871,11.871,0,0,0-.816,1.674,7.07,7.07,0,0,0-.363,1.322l-1.566,11.041-.074,1.289a5.115,5.115,0,0,0,.068.87,8.881,8.881,0,0,0,.313,1.114h-5.15a7.175,7.175,0,0,0,.835-1.549,9.033,9.033,0,0,0,.35-1.724M663.3,906.37a1.932,1.932,0,0,1,1.461.627,2.188,2.188,0,0,1,.591,1.567,2.151,2.151,0,0,1-.713,1.619,2.4,2.4,0,0,1-1.721.68,2,2,0,0,1-1.463-.629,2.085,2.085,0,0,1-.626-1.53,2.2,2.2,0,0,1,.715-1.656A2.448,2.448,0,0,1,663.3,906.37Z" fill="#f07500"/>
        <path id="Path_152" data-name="Path 152" d="M676.077,913.161a6.638,6.638,0,0,1,5.152,2.054,8,8,0,0,1,1.878,5.609,9.816,9.816,0,0,1-2.882,7.1,9.35,9.35,0,0,1-6.946,2.963,6.947,6.947,0,0,1-5.3-2.072,7.748,7.748,0,0,1-1.962-5.555v-.87a10.208,10.208,0,0,1,3.306-6.617,9.662,9.662,0,0,1,6.753-2.613m-6.3,9.125a6.788,6.788,0,0,0,1.43,4.458,4.543,4.543,0,0,0,3.687,1.742,3.067,3.067,0,0,0,2.786-1.136,9.279,9.279,0,0,0,1.148-2.784,12.42,12.42,0,0,0,.416-3.046,6.58,6.58,0,0,0-1.393-4.25,4.274,4.274,0,0,0-3.481-1.741,4.941,4.941,0,0,0-2.139.452,2.941,2.941,0,0,0-1.389,1.254,8.571,8.571,0,0,0-.75,2.264A13.237,13.237,0,0,0,669.776,922.286Z" fill="#f07500"/>
        <path id="Path_153" data-name="Path 153" d="M685.229,927.4l1.6-11.037.039-.905a6.489,6.489,0,0,0-.415-2.089h4.418l-.383,2.963c.626-.559,1.065-.964,1.323-1.221s.65-.708,1.185-1.357a8.236,8.236,0,0,1,1.529-.489,7.727,7.727,0,0,1,1.533-.138q4.035,0,4.037,3.551l-.074.8-1.389,9.925-.105,1.462a4.852,4.852,0,0,0,.455,1.811h-5.117a10.84,10.84,0,0,0,.767-1.565,8.8,8.8,0,0,0,.348-1.707l1.36-9.473.031-.522q0-1.881-2.3-1.881a3.614,3.614,0,0,0-1.5.312l-.9.561q-1.357,1.145-1.463,1.634l-1.325,9.37-.1,1.5a3.4,3.4,0,0,0,.07.819c.046.171.149.492.311.957h-5.22a9.708,9.708,0,0,0,.9-1.532,6.718,6.718,0,0,0,.389-1.746" fill="#f07500"/>
        <path id="Path_154" data-name="Path 154" d="M723.106,951.447a2.359,2.359,0,0,1,.652-1.082,1.469,1.469,0,0,1,1.019-.383c.813,0,1.225.463,1.225,1.387a4.544,4.544,0,0,1-.111.97h-3.009Zm4.155,1.848a12.556,12.556,0,0,0,.19-1.624,2.706,2.706,0,0,0-.652-1.943,2.519,2.519,0,0,0-1.894-.669,3.489,3.489,0,0,0-2.88,1.435,5.922,5.922,0,0,0-1.115,3.724c0,1.991,1.019,2.978,3.057,2.978a4.732,4.732,0,0,0,1-.094,6,6,0,0,0,1.067-.383c.142-.286.254-.526.365-.715s.271-.446.477-.765a10.148,10.148,0,0,1-1.463.717,3.311,3.311,0,0,1-1.035.144,1.648,1.648,0,0,1-1.288-.511,2.009,2.009,0,0,1-.463-1.4l.048-.89Zm-18.015,3.12a2.653,2.653,0,0,1-.367.686h2.355a2.374,2.374,0,0,1-.142-.477l-.033-.367.048-.653.638-4.458c.015-.144.206-.336.556-.607a1.735,1.735,0,0,1,1.034-.382c.59,0,.875.271.875.813l-.015.3-.621,4.331a2.972,2.972,0,0,1-.192.811,2.739,2.739,0,0,1-.381.686h2.34a2.37,2.37,0,0,1-.144-.494l-.031-.367.031-.636.621-4.362c.015-.192.223-.415.588-.686a1.774,1.774,0,0,1,1.05-.4c.573,0,.86.271.86.8l-.017.24-.652,4.41a4.6,4.6,0,0,1-.158.7c-.081.206-.192.477-.35.8h2.338a4.431,4.431,0,0,1-.144-.446,1.853,1.853,0,0,1-.031-.382v-.653l.669-4.491.015-.175.017-.192v-.238c0-.972-.573-1.449-1.719-1.449a2.6,2.6,0,0,0-.6.063,4.284,4.284,0,0,0-.669.223,7.658,7.658,0,0,1-.509.59l-.542.542a2.025,2.025,0,0,0-.254-.844,1.178,1.178,0,0,0-.588-.4l-.429-.144a4.909,4.909,0,0,0-.51-.031,3.02,3.02,0,0,0-.652.063,3.384,3.384,0,0,0-.669.223,5.072,5.072,0,0,1-.477.542c-.144.175-.333.35-.54.557l.175-1.274h-2.021a2.7,2.7,0,0,1,.206.828l-.031.542-.748,5.048A3.507,3.507,0,0,1,709.247,956.414Zm-11.809,0a2.586,2.586,0,0,1-.365.686h2.355a2.539,2.539,0,0,1-.144-.477l-.031-.367.048-.653.636-4.458c.017-.144.208-.336.558-.607a1.735,1.735,0,0,1,1.034-.382c.59,0,.875.271.875.813l-.017.3-.621,4.331a2.984,2.984,0,0,1-.19.811,2.862,2.862,0,0,1-.381.686h2.338a2.624,2.624,0,0,1-.144-.494l-.031-.367.031-.636.621-4.362c.016-.192.223-.415.59-.686a1.765,1.765,0,0,1,1.05-.4c.573,0,.859.271.859.8l-.015.24-.654,4.41a4.391,4.391,0,0,1-.158.7c-.079.206-.192.477-.35.8h2.34a3.616,3.616,0,0,1-.144-.446,1.727,1.727,0,0,1-.031-.382v-.653l.667-4.491.017-.175.017-.192v-.238c0-.972-.573-1.449-1.719-1.449a2.594,2.594,0,0,0-.6.063,4.164,4.164,0,0,0-.669.223c-.206.256-.367.446-.509.59l-.542.542a2.052,2.052,0,0,0-.254-.844,1.176,1.176,0,0,0-.59-.4l-.429-.144a4.907,4.907,0,0,0-.509-.031,3.02,3.02,0,0,0-.652.063,3.309,3.309,0,0,0-.669.223,5.275,5.275,0,0,1-.477.542c-.144.175-.335.35-.542.557l.175-1.274h-2.021a2.708,2.708,0,0,1,.208.828l-.033.542-.748,5.048A3.413,3.413,0,0,1,697.438,956.414Zm-3.247-2.037q-.213,1.576-1.623,1.577a1.385,1.385,0,0,1-1.113-.494,1.929,1.929,0,0,1-.414-1.289,4.731,4.731,0,0,1,.829-2.867,2.468,2.468,0,0,1,2.053-1.147l.4.031a2.37,2.37,0,0,1,.479.1Zm-1.765,2.8a3.468,3.468,0,0,0,.667-.24c.112-.175.223-.35.335-.492a4.8,4.8,0,0,1,.573-.559l-.065.4v.24a1.415,1.415,0,0,0,.16.573h1.75a2.65,2.65,0,0,1-.16-.844v-.43l.733-5.224a3.691,3.691,0,0,1,.158-.653,8.171,8.171,0,0,1,.381-.765h-1.909a5.849,5.849,0,0,0-4.186,1.514,5.177,5.177,0,0,0-1.59,3.949,2.414,2.414,0,0,0,2.578,2.594A2.178,2.178,0,0,0,692.426,957.179Zm-7.656-.811a6.753,6.753,0,0,1-.381.732h2.355a3.367,3.367,0,0,1-.158-.463l-.031-.382.048-.636.525-3.759a1.6,1.6,0,0,1,.461-.955,1.266,1.266,0,0,1,.907-.367,1.539,1.539,0,0,1,.892.4c.065-.317.127-.62.206-.907s.192-.573.3-.876h-.4a2.181,2.181,0,0,0-.794.206,2.811,2.811,0,0,0-.748.446,4.808,4.808,0,0,0-.669.78l.223-1.433h-2a3.267,3.267,0,0,1,.142.59l.033.413-.033.4-.715,5.048A5.7,5.7,0,0,1,684.77,956.368Zm-3.278-1.9a1.5,1.5,0,0,1-1.607,1.481,1.472,1.472,0,0,1-1.146-.478,1.777,1.777,0,0,1-.429-1.226,4.9,4.9,0,0,1,.827-2.93,2.455,2.455,0,0,1,2.069-1.164c.111,0,.238.017.413.031l.477.1Zm-5.076,3.806a5.891,5.891,0,0,1-.158.8,7.378,7.378,0,0,0,1.5.7,4.888,4.888,0,0,0,1.384.159,3.4,3.4,0,0,0,2.515-.732,4.58,4.58,0,0,0,.89-1.211,6.221,6.221,0,0,0,.319-1.305l.844-6.018a5.3,5.3,0,0,1,.158-.7,7.568,7.568,0,0,1,.367-.782h-1.959a6.425,6.425,0,0,0-2.767.573,4.563,4.563,0,0,0-1.815,1.418,6.15,6.15,0,0,0-.875,1.735,5.927,5.927,0,0,0-.271,1.689,2.564,2.564,0,0,0,.685,1.9,2.468,2.468,0,0,0,1.83.7,2.739,2.739,0,0,0,.621-.063,3.7,3.7,0,0,0,.684-.223,6.805,6.805,0,0,1,.907-1l-.094.78a2.624,2.624,0,0,1-.177.717,2.328,2.328,0,0,1-.333.636,1.6,1.6,0,0,1-.684.463,2.583,2.583,0,0,1-1.036.206,2.626,2.626,0,0,1-1.192-.254,6.3,6.3,0,0,1-1.29-.955A5.492,5.492,0,0,1,676.416,958.278ZM670,951.987a3.546,3.546,0,0,1,.352-1.034,1.328,1.328,0,0,1,.636-.573,2.112,2.112,0,0,1,.971-.206,1.979,1.979,0,0,1,1.59.8,2.965,2.965,0,0,1,.638,1.941A5.577,5.577,0,0,1,674,954.3a4.1,4.1,0,0,1-.525,1.274,1.4,1.4,0,0,1-1.273.526,2.1,2.1,0,0,1-1.686-.8,3.135,3.135,0,0,1-.652-2.039A6.227,6.227,0,0,1,670,951.987Zm-.35-1.7a4.663,4.663,0,0,0-1.511,3.026v.4a3.526,3.526,0,0,0,.892,2.531,3.192,3.192,0,0,0,2.434.955,4.244,4.244,0,0,0,3.167-1.353,4.521,4.521,0,0,0,1.321-3.247,3.646,3.646,0,0,0-.86-2.565,3.041,3.041,0,0,0-2.355-.939A4.43,4.43,0,0,0,669.652,950.284Zm-6.141,6.084a7.1,7.1,0,0,1-.381.732h2.355a3.193,3.193,0,0,1-.16-.463l-.031-.382.048-.636.525-3.759a1.605,1.605,0,0,1,.461-.955,1.271,1.271,0,0,1,.908-.367,1.539,1.539,0,0,1,.89.4c.065-.317.127-.62.208-.907s.19-.573.3-.876h-.4a2.181,2.181,0,0,0-.8.206,2.842,2.842,0,0,0-.748.446,4.811,4.811,0,0,0-.669.78l.223-1.433h-2a3.473,3.473,0,0,1,.144.59l.031.413-.031.4-.717,5.048A6.041,6.041,0,0,1,663.511,956.368Zm-3.932-9.682a2.639,2.639,0,0,1,1.575.557,1.943,1.943,0,0,1,.462,1.416,3.37,3.37,0,0,1-.223,1.195,3.615,3.615,0,0,1-.621.972,2.356,2.356,0,0,1-.8.557,2.941,2.941,0,0,1-1.1.16Zm-3.293,9.728a3.287,3.287,0,0,1-.446.686h2.721a2.747,2.747,0,0,1-.24-.94l.017-.319.048-.3.477-3.47h.158a5.4,5.4,0,0,0,3.39-.988,3.218,3.218,0,0,0,1.257-2.675,2.474,2.474,0,0,0-.94-2.037,4.2,4.2,0,0,0-2.64-.749h-2.642a2.632,2.632,0,0,1,.271,1.02l-.048.477-1.177,8.422A3.766,3.766,0,0,1,656.287,956.414ZM645.83,956.1c-.048.271-.1.525-.142.732a7.078,7.078,0,0,0,1.034.319,5.371,5.371,0,0,0,.954.079,3.379,3.379,0,0,0,2.244-.749,2.366,2.366,0,0,0,.859-1.879,1.727,1.727,0,0,0-.238-.972,6.894,6.894,0,0,0-1.211-1.1l-.54-.446a2.412,2.412,0,0,1-.573-.526.9.9,0,0,1-.127-.492,1,1,0,0,1,.365-.782,1.394,1.394,0,0,1,.94-.3,2.18,2.18,0,0,1,.844.175,3.787,3.787,0,0,1,.89.653,4.239,4.239,0,0,1,.048-.684,6.787,6.787,0,0,1,.127-.717,5.219,5.219,0,0,0-.923-.3,5.691,5.691,0,0,0-.875-.048,3.457,3.457,0,0,0-2.259.7,2.337,2.337,0,0,0-.844,1.879,1.857,1.857,0,0,0,.383,1.178,4.065,4.065,0,0,0,1.144,1,4.487,4.487,0,0,1,.956.732,1,1,0,0,1,.175.588,1.06,1.06,0,0,1-.4.813,1.334,1.334,0,0,1-.908.35,1.783,1.783,0,0,1-.938-.271,3.3,3.3,0,0,1-.906-.876A5.288,5.288,0,0,1,645.83,956.1Zm-3.294.317a3.687,3.687,0,0,1-.4.686h2.386c-.111-.223-.175-.367-.192-.415a1.782,1.782,0,0,1-.031-.4l.064-.684,1.113-7.978a10.037,10.037,0,0,1,.223-1.178,3.927,3.927,0,0,1,.415-.828h-2.34l.1.3a2.1,2.1,0,0,1,.048.526,10.053,10.053,0,0,1-.1,1.178L642.7,955.6A4.156,4.156,0,0,1,642.536,956.414Zm-6.762-4.427a3.549,3.549,0,0,1,.35-1.034,1.328,1.328,0,0,1,.636-.573,2.118,2.118,0,0,1,.971-.206,1.98,1.98,0,0,1,1.592.8,2.973,2.973,0,0,1,.636,1.941,5.57,5.57,0,0,1-.19,1.387,4.192,4.192,0,0,1-.525,1.274,1.4,1.4,0,0,1-1.273.526,2.1,2.1,0,0,1-1.688-.8,3.135,3.135,0,0,1-.652-2.039A6.112,6.112,0,0,1,635.774,951.987Zm-.35-1.7a4.665,4.665,0,0,0-1.513,3.026v.4a3.534,3.534,0,0,0,.892,2.531,3.194,3.194,0,0,0,2.434.955,4.244,4.244,0,0,0,3.167-1.353,4.521,4.521,0,0,0,1.321-3.247,3.653,3.653,0,0,0-.859-2.565,3.045,3.045,0,0,0-2.357-.939A4.426,4.426,0,0,0,635.424,950.284Zm-8.181,1.7a3.544,3.544,0,0,1,.352-1.034,1.328,1.328,0,0,1,.636-.573,2.112,2.112,0,0,1,.971-.206,1.979,1.979,0,0,1,1.59.8,2.975,2.975,0,0,1,.638,1.941,5.577,5.577,0,0,1-.192,1.387,4.1,4.1,0,0,1-.525,1.274,1.4,1.4,0,0,1-1.273.526,2.1,2.1,0,0,1-1.686-.8,3.135,3.135,0,0,1-.652-2.039A6.227,6.227,0,0,1,627.243,951.987Zm-.35-1.7a4.663,4.663,0,0,0-1.511,3.026v.4a3.526,3.526,0,0,0,.892,2.531,3.192,3.192,0,0,0,2.434.955,4.244,4.244,0,0,0,3.167-1.353,4.521,4.521,0,0,0,1.321-3.247,3.646,3.646,0,0,0-.861-2.565,3.041,3.041,0,0,0-2.355-.939A4.427,4.427,0,0,0,626.893,950.284Zm-9.421,6.116a3.322,3.322,0,0,1-.4.7h2.37a2.954,2.954,0,0,1-.159-.876l.031-.621.606-4.252a.954.954,0,0,1,.348-.525,2.425,2.425,0,0,1,.685-.478,1.83,1.83,0,0,1,.763-.175c.669,0,1,.254,1,.78l-.017.319-.621,4.331a3.766,3.766,0,0,1-.175.8,4.07,4.07,0,0,1-.381.7h2.386a3.367,3.367,0,0,1-.158-.463l-.031-.365.048-.669.6-4.4.048-.6c0-1.02-.638-1.528-1.894-1.528a3.7,3.7,0,0,0-.684.048,3.31,3.31,0,0,0-.638.238c-.254.3-.461.526-.621.686l-.492.478.333-2.851a6.3,6.3,0,0,1,.192-1.082,8.768,8.768,0,0,1,.444-1.084c-.461.127-.842.223-1.161.288a10.938,10.938,0,0,1-1.242.207,2.278,2.278,0,0,1,.192.813,4.208,4.208,0,0,1-.1.811l-1.113,7.978A3.476,3.476,0,0,1,617.472,956.4Zm-.429-6.306c.033-.223.079-.494.127-.8a5.068,5.068,0,0,0-5.06,1.178,4.678,4.678,0,0,0-1.48,3.5,3.177,3.177,0,0,0,.875,2.39,3.293,3.293,0,0,0,2.4.859,4.335,4.335,0,0,0,.763-.064q.406-.072,1-.19a6.087,6.087,0,0,1,.492-.892c.144-.223.287-.415.415-.59a6.859,6.859,0,0,1-.8.3c-.1.033-.24.065-.446.112s-.367.079-.494.1l-.35.031a2,2,0,0,1-1.59-.636,2.523,2.523,0,0,1-.573-1.752,3.818,3.818,0,0,1,.89-2.533,2.706,2.706,0,0,1,2.134-1.051,2.3,2.3,0,0,1,1.638.844A5.928,5.928,0,0,1,617.043,950.094Zm-13.7,6.608a4.5,4.5,0,0,0,1.05.4,6.278,6.278,0,0,0,1.115.079,5.116,5.116,0,0,0,1.878-.3,4.346,4.346,0,0,0,1.542-1.195,3.1,3.1,0,0,0,.765-2.1,2.26,2.26,0,0,0-.556-1.72c-.367-.334-.59-.54-.669-.588s-.367-.254-.859-.621a5.461,5.461,0,0,1-1.05-.907,1.4,1.4,0,0,1-.3-.924,1.826,1.826,0,0,1,.575-1.37,1.986,1.986,0,0,1,2.322-.319,4.484,4.484,0,0,1,1.019.876l.223-2.006a4.887,4.887,0,0,0-.971-.382,4.651,4.651,0,0,0-.938-.079,4.321,4.321,0,0,0-2.961,1.082A3.481,3.481,0,0,0,604.3,949.3a2.322,2.322,0,0,0,.6,1.848c.4.334.685.573.844.684a6.878,6.878,0,0,0,.765.557,3.37,3.37,0,0,1,.827.8,1.644,1.644,0,0,1,.271.907,1.669,1.669,0,0,1-.525,1.274,1.848,1.848,0,0,1-1.338.494,2.06,2.06,0,0,1-1.05-.271,4.209,4.209,0,0,1-1.05-1Zm-8.735-.334a7.181,7.181,0,0,1-.383.732h2.355a3.367,3.367,0,0,1-.158-.463l-.031-.382.048-.636.525-3.759a1.6,1.6,0,0,1,.461-.955,1.266,1.266,0,0,1,.906-.367,1.539,1.539,0,0,1,.892.4c.065-.317.127-.62.206-.907s.192-.573.3-.876h-.4a2.18,2.18,0,0,0-.8.206,2.811,2.811,0,0,0-.748.446,4.808,4.808,0,0,0-.669.78l.223-1.433h-2a3.473,3.473,0,0,1,.144.59l.031.413-.031.4-.717,5.048A6.029,6.029,0,0,1,594.606,956.368Zm-5.045-4.921a2.328,2.328,0,0,1,.652-1.082,1.465,1.465,0,0,1,1.017-.383c.813,0,1.225.463,1.225,1.387a4.547,4.547,0,0,1-.111.97h-3.007Zm4.153,1.848a12.556,12.556,0,0,0,.19-1.624,2.706,2.706,0,0,0-.652-1.943,2.516,2.516,0,0,0-1.894-.669,3.489,3.489,0,0,0-2.88,1.435,5.921,5.921,0,0,0-1.113,3.724c0,1.991,1.017,2.978,3.055,2.978a4.72,4.72,0,0,0,1-.094,5.9,5.9,0,0,0,1.067-.383c.142-.286.254-.526.365-.715s.271-.446.479-.765a10.232,10.232,0,0,1-1.465.717,3.307,3.307,0,0,1-1.034.144,1.649,1.649,0,0,1-1.29-.511,2.008,2.008,0,0,1-.461-1.4l.048-.89Zm-18.014,3.12a2.6,2.6,0,0,1-.367.686h2.357a2.4,2.4,0,0,1-.144-.477l-.031-.367.048-.653.636-4.458c.017-.144.206-.336.556-.607a1.739,1.739,0,0,1,1.036-.382c.588,0,.875.271.875.813l-.017.3-.621,4.331a3.052,3.052,0,0,1-.19.811,2.811,2.811,0,0,1-.383.686h2.34a2.624,2.624,0,0,1-.144-.494l-.031-.367.031-.636.621-4.362c.017-.192.223-.415.588-.686a1.774,1.774,0,0,1,1.05-.4c.573,0,.86.271.86.8l-.017.24-.652,4.41a4.6,4.6,0,0,1-.159.7c-.079.206-.192.477-.35.8h2.338a3.843,3.843,0,0,1-.142-.446,1.692,1.692,0,0,1-.033-.382v-.653l.669-4.491.017-.175.015-.192v-.238c0-.972-.573-1.449-1.717-1.449a2.608,2.608,0,0,0-.606.063,4.209,4.209,0,0,0-.667.223c-.208.256-.367.446-.51.59s-.317.319-.54.542a2.053,2.053,0,0,0-.254-.844,1.184,1.184,0,0,0-.59-.4l-.429-.144a4.911,4.911,0,0,0-.51-.031,3.02,3.02,0,0,0-.652.063,3.333,3.333,0,0,0-.667.223,5.289,5.289,0,0,1-.479.542c-.142.175-.333.35-.54.557l.175-1.274h-2.021a2.7,2.7,0,0,1,.206.828l-.031.542-.748,5.048A3.51,3.51,0,0,1,575.7,956.414Zm-11.807,0a2.657,2.657,0,0,1-.367.686h2.355a2.534,2.534,0,0,1-.144-.477l-.031-.367.048-.653.638-4.458c.015-.144.206-.336.556-.607a1.734,1.734,0,0,1,1.034-.382c.59,0,.875.271.875.813l-.015.3-.621,4.331a3.042,3.042,0,0,1-.192.811,2.793,2.793,0,0,1-.381.686h2.338a2.453,2.453,0,0,1-.142-.494l-.033-.367.033-.636.621-4.362c.015-.192.221-.415.588-.686a1.774,1.774,0,0,1,1.05-.4c.573,0,.859.271.859.8l-.015.24-.652,4.41a4.6,4.6,0,0,1-.16.7,8.615,8.615,0,0,1-.35.8h2.34a4.431,4.431,0,0,1-.144-.446,1.853,1.853,0,0,1-.031-.382v-.653l.669-4.491.015-.175.017-.192v-.238c0-.972-.573-1.449-1.719-1.449a2.6,2.6,0,0,0-.6.063,4.164,4.164,0,0,0-.669.223,7.644,7.644,0,0,1-.509.59l-.542.542a2.025,2.025,0,0,0-.254-.844,1.178,1.178,0,0,0-.588-.4l-.431-.144a4.841,4.841,0,0,0-.509-.031,3.02,3.02,0,0,0-.652.063,3.386,3.386,0,0,0-.669.223,5.283,5.283,0,0,1-.477.542c-.144.175-.333.35-.542.557l.175-1.274h-2.019a2.7,2.7,0,0,1,.206.828l-.033.542-.746,5.048A3.51,3.51,0,0,1,563.893,956.414Zm-5.109.717a4.982,4.982,0,0,0,.731-.206l.383-.446c.142-.144.317-.334.54-.557l-.175,1.178h2.021a2.651,2.651,0,0,1-.19-.861,2.528,2.528,0,0,1,.063-.636l.7-5.048a1.716,1.716,0,0,1,.144-.573c.079-.175.206-.43.413-.8h-2.371a3.265,3.265,0,0,1,.177.607v.286l-.033.477-.588,4.235a2.289,2.289,0,0,1-.16.573,1.857,1.857,0,0,1-.365.415,1.755,1.755,0,0,1-1.067.382,1.539,1.539,0,0,1-.875-.223.653.653,0,0,1-.334-.573v-.509l.636-4.3a2.347,2.347,0,0,1,.127-.588,7.332,7.332,0,0,1,.4-.782h-2.371a2.635,2.635,0,0,1,.175.511,2.844,2.844,0,0,1,.033.43l-.017.43-.6,4.029c-.048.557-.079.907-.079,1.036a1.33,1.33,0,0,0,.588,1.13,2.422,2.422,0,0,0,1.5.43A3.35,3.35,0,0,0,558.784,957.131Zm-10.025-.43a4.5,4.5,0,0,0,1.05.4,6.277,6.277,0,0,0,1.115.079,5.115,5.115,0,0,0,1.878-.3,4.347,4.347,0,0,0,1.542-1.195,3.1,3.1,0,0,0,.765-2.1,2.26,2.26,0,0,0-.556-1.72c-.367-.334-.59-.54-.669-.588s-.367-.254-.859-.621a5.462,5.462,0,0,1-1.05-.907,1.4,1.4,0,0,1-.3-.924,1.831,1.831,0,0,1,.573-1.37,1.989,1.989,0,0,1,2.323-.319,4.488,4.488,0,0,1,1.019.876l.223-2.006a4.889,4.889,0,0,0-.971-.382,4.664,4.664,0,0,0-.938-.079,4.321,4.321,0,0,0-2.961,1.082,3.481,3.481,0,0,0-1.225,2.675,2.316,2.316,0,0,0,.6,1.848c.4.334.685.573.844.684a6.876,6.876,0,0,0,.765.557,3.368,3.368,0,0,1,.827.8,1.644,1.644,0,0,1,.271.907,1.669,1.669,0,0,1-.525,1.274,1.848,1.848,0,0,1-1.338.494,2.059,2.059,0,0,1-1.05-.271,4.209,4.209,0,0,1-1.05-1Z" fill="#640f61"/>
      </g>
    </g>
  </g>
</svg>
